<?xml version="1.0" encoding="utf-8"?>
<!-- Generator: Adobe Illustrator 17.0.0, SVG Export Plug-In . SVG Version: 6.00 Build 0)  -->
<svg version="1.2" baseProfile="tiny" id="Layer_1" xmlns="http://www.w3.org/2000/svg" xmlns:xlink="http://www.w3.org/1999/xlink"
	 x="0px" y="0px" width="353.667px" height="49px" viewBox="0 0 353.667 49" xml:space="preserve">
<g>
	<path fill="#4EA7D4" d="M3.987,35V4.088h5.888v11.224c1.686-2.361,3.925-3.542,6.716-3.542c1.472,0,2.783,0.284,3.933,0.851
		c1.15,0.568,2.123,1.373,2.921,2.415c0.797,1.043,1.403,2.277,1.817,3.703c0.414,1.426,0.621,2.998,0.621,4.715
		c0,1.902-0.246,3.604-0.736,5.106c-0.491,1.503-1.166,2.775-2.024,3.817c-0.859,1.043-1.894,1.84-3.105,2.393
		c-1.212,0.552-2.523,0.828-3.933,0.828c-2.822,0-4.922-1.119-6.302-3.358L9.737,35H3.987z M14.705,30.723
		c1.502,0,2.729-0.637,3.68-1.909c0.95-1.272,1.426-2.921,1.426-4.945c0-4.661-1.718-6.992-5.152-6.992
		c-3.343,0-5.014,2.454-5.014,7.36c0,1.932,0.483,3.496,1.449,4.692C12.06,30.124,13.264,30.723,14.705,30.723z"/>
	<path fill="#4EA7D4" d="M42.027,35c-0.183-0.582-0.305-1.257-0.365-2.023c-0.706,0.798-1.641,1.434-2.806,1.908
		c-1.166,0.476-2.515,0.714-4.048,0.714c-2.607,0-4.516-0.575-5.727-1.726c-1.212-1.149-1.817-2.645-1.817-4.484
		c0-1.626,0.26-2.922,0.782-3.888c0.521-0.966,1.242-1.725,2.162-2.276c0.92-0.553,2.016-0.958,3.289-1.22
		c1.272-0.26,2.66-0.498,4.163-0.713c1.502-0.214,2.514-0.498,3.036-0.851c0.521-0.352,0.782-0.927,0.782-1.725
		c0-0.736-0.345-1.311-1.035-1.725c-0.69-0.414-1.618-0.621-2.783-0.621c-1.38,0-2.369,0.307-2.967,0.92
		c-0.598,0.614-0.974,1.426-1.127,2.438h-5.566c0.03-1.165,0.222-2.238,0.575-3.22c0.352-0.981,0.92-1.824,1.702-2.53
		c0.782-0.705,1.801-1.249,3.056-1.633c1.255-0.383,2.785-0.575,4.589-0.575c1.772,0,3.278,0.2,4.516,0.598
		c1.238,0.399,2.232,0.974,2.98,1.725c0.749,0.752,1.291,1.687,1.627,2.806c0.336,1.12,0.504,2.385,0.504,3.795V35H42.027z
		 M41.616,23.914c-0.307,0.307-0.752,0.552-1.334,0.736c-0.583,0.184-1.426,0.384-2.53,0.598c-1.718,0.338-2.898,0.768-3.542,1.288
		c-0.644,0.521-0.966,1.273-0.966,2.254c0,1.688,0.966,2.53,2.898,2.53c0.766,0,1.479-0.13,2.139-0.391
		c0.659-0.261,1.226-0.613,1.702-1.059c0.475-0.444,0.858-0.966,1.15-1.563c0.292-0.599,0.437-1.234,0.437-1.909L41.616,23.914z"/>
	<path fill="#4EA7D4" d="M49.987,35V4.088h5.888v11.224c1.686-2.361,3.925-3.542,6.716-3.542c1.472,0,2.783,0.284,3.933,0.851
		c1.15,0.568,2.123,1.373,2.921,2.415c0.797,1.043,1.403,2.277,1.817,3.703c0.414,1.426,0.621,2.998,0.621,4.715
		c0,1.902-0.246,3.604-0.736,5.106c-0.491,1.503-1.166,2.775-2.024,3.817c-0.859,1.043-1.894,1.84-3.105,2.393
		c-1.212,0.552-2.523,0.828-3.933,0.828c-2.822,0-4.922-1.119-6.302-3.358L55.737,35H49.987z M60.705,30.723
		c1.502,0,2.729-0.637,3.68-1.909c0.95-1.272,1.426-2.921,1.426-4.945c0-4.661-1.718-6.992-5.152-6.992
		c-3.343,0-5.014,2.454-5.014,7.36c0,1.932,0.483,3.496,1.449,4.692C58.06,30.124,59.263,30.723,60.705,30.723z"/>
	<path fill="#4EA7D4" d="M88.259,32.01c-0.43,1.013-1.204,1.803-2.323,2.369c-1.12,0.568-2.385,0.852-3.795,0.852
		c-1.196,0-2.3-0.192-3.312-0.575c-1.012-0.383-1.886-0.936-2.622-1.656c-0.736-0.72-1.311-1.579-1.725-2.576
		c-0.414-0.996-0.621-2.123-0.621-3.381V12.368h5.98v13.8c0,2.822,1.272,4.232,3.818,4.232c1.38,0,2.491-0.398,3.335-1.196
		c0.843-0.797,1.265-1.809,1.265-3.036v-13.8h5.98v23.23c0,1.594-0.269,3.02-0.805,4.277c-0.537,1.258-1.273,2.315-2.208,3.174
		c-0.936,0.858-2.04,1.519-3.312,1.979c-1.273,0.46-2.63,0.689-4.071,0.689c-3.343,0-5.842-0.851-7.498-2.552
		c-1.656-1.703-2.484-4.025-2.484-6.97h5.566c0,1.349,0.391,2.407,1.173,3.174c0.782,0.767,1.955,1.15,3.519,1.15
		c0.552,0,1.073-0.115,1.564-0.343c0.49-0.229,0.927-0.55,1.311-0.961c0.383-0.413,0.69-0.924,0.92-1.533
		c0.23-0.61,0.345-1.282,0.345-2.014V32.01z"/>
	<path fill="#4EA7D4" d="M122.482,35V21.292c0-1.748-0.292-2.928-0.874-3.542c-0.583-0.613-1.58-0.92-2.99-0.92
		c-3.098,0-4.646,1.733-4.646,5.198V35h-5.98V12.368h5.704v3.301c0.703-1.3,1.635-2.282,2.797-2.947s2.66-0.998,4.494-0.998
		c1.07,0,2.063,0.162,2.981,0.484c0.917,0.323,1.705,0.806,2.362,1.452c0.657,0.646,1.176,1.436,1.559,2.374
		c0.382,0.937,0.574,2.021,0.574,3.25V35H122.482z"/>
	<path fill="#4EA7D4" d="M145.065,35c-0.183-0.582-0.305-1.257-0.365-2.023c-0.706,0.798-1.641,1.434-2.806,1.908
		c-1.166,0.476-2.515,0.714-4.048,0.714c-2.607,0-4.516-0.575-5.727-1.726c-1.212-1.149-1.817-2.645-1.817-4.484
		c0-1.626,0.26-2.922,0.782-3.888c0.521-0.966,1.242-1.725,2.162-2.276c0.92-0.553,2.016-0.958,3.289-1.22
		c1.272-0.26,2.66-0.498,4.163-0.713c1.502-0.214,2.514-0.498,3.036-0.851c0.521-0.352,0.782-0.927,0.782-1.725
		c0-0.736-0.345-1.311-1.035-1.725c-0.69-0.414-1.618-0.621-2.783-0.621c-1.38,0-2.369,0.307-2.967,0.92
		c-0.598,0.614-0.974,1.426-1.127,2.438h-5.566c0.03-1.165,0.222-2.238,0.575-3.22c0.352-0.981,0.92-1.824,1.702-2.53
		c0.782-0.705,1.801-1.249,3.056-1.633c1.255-0.383,2.785-0.575,4.589-0.575c1.772,0,3.278,0.2,4.516,0.598
		c1.238,0.399,2.232,0.974,2.98,1.725c0.749,0.752,1.291,1.687,1.627,2.806c0.336,1.12,0.504,2.385,0.504,3.795V35H145.065z
		 M144.654,23.914c-0.307,0.307-0.752,0.552-1.334,0.736c-0.583,0.184-1.426,0.384-2.53,0.598c-1.718,0.338-2.898,0.768-3.542,1.288
		c-0.644,0.521-0.966,1.273-0.966,2.254c0,1.688,0.966,2.53,2.898,2.53c0.766,0,1.479-0.13,2.139-0.391
		c0.659-0.261,1.226-0.613,1.702-1.059c0.475-0.444,0.858-0.966,1.15-1.563c0.292-0.599,0.437-1.234,0.437-1.909L144.654,23.914z"/>
	<path fill="#4EA7D4" d="M179.567,35V21.292c0-1.38-0.321-2.499-0.966-3.358c-0.644-0.858-1.503-1.288-2.576-1.288
		c-1.104,0-2.017,0.46-2.737,1.38c-0.721,0.92-1.081,2.07-1.081,3.45V35h-5.98V21.384c0-0.92-0.062-1.671-0.184-2.254
		c-0.123-0.582-0.33-1.042-0.621-1.38c-0.292-0.337-0.667-0.575-1.127-0.713c-0.46-0.138-1.012-0.207-1.656-0.207
		c-2.423,0-3.634,1.472-3.634,4.416V35h-5.98V12.368h5.612v3.301c0.766-1.516,1.686-2.553,2.76-3.109
		c1.073-0.557,2.361-0.836,3.864-0.836c0.766,0,1.449,0.063,2.047,0.186s1.134,0.333,1.61,0.627
		c0.475,0.294,0.927,0.672,1.357,1.137c0.429,0.464,0.858,1.021,1.288,1.67c0.613-1.269,1.426-2.189,2.438-2.761
		c1.012-0.572,2.238-0.859,3.68-0.859c1.135,0,2.178,0.192,3.128,0.576s1.764,0.921,2.438,1.613c0.674,0.692,1.203,1.499,1.587,2.42
		c0.383,0.921,0.575,1.904,0.575,2.95V35H179.567z"/>
	<path fill="#4EA7D4" d="M193.275,25.248c0.093,1.718,0.591,3.082,1.495,4.094c0.904,1.013,2.093,1.519,3.565,1.519
		c0.98,0,1.847-0.223,2.599-0.667c0.751-0.444,1.234-1.065,1.449-1.863h6.164c-0.706,2.331-1.933,4.125-3.68,5.382
		c-1.748,1.258-3.834,1.887-6.257,1.887c-7.544,0-11.315-4.109-11.315-12.328c0-1.749,0.245-3.328,0.735-4.738
		s1.204-2.622,2.14-3.634c0.935-1.012,2.077-1.786,3.427-2.323s2.898-0.805,4.646-0.805c3.495,0,6.141,1.12,7.935,3.358
		c1.794,2.239,2.691,5.612,2.691,10.12H193.275z M202.705,21.476c-0.031-0.828-0.177-1.556-0.438-2.185
		c-0.261-0.628-0.605-1.15-1.035-1.564s-0.92-0.72-1.472-0.92c-0.552-0.199-1.12-0.299-1.702-0.299c-1.196,0-2.23,0.437-3.104,1.311
		s-1.373,2.093-1.495,3.657H202.705z"/>
</g>
<path fill="#F80100" d="M286.775,29.541c1.317-5.053,1.813-5.545,5.947-5.492c3.262,0.042,6.427-0.143,8.894-2.56
	c0.461-0.451,0.699-1.943,0.376-2.246c-1.828-1.712-3.721-3.371-6.661-2.543c-1.252,0.353-2.682,0.072-4.032,0.079
	c-0.159-0.267-0.318-0.534-0.478-0.801c0.694-0.619,1.294-1.576,2.097-1.799c3.313-0.918,6.721-1.494,10.022-2.446
	c1.421-0.409,2.817-1.258,3.921-2.246c0.461-0.413,0.503-2.2,0.092-2.51c-1.233-0.931-2.909-2.199-4.189-1.987
	c-6.164,1.023-12.271,2.416-18.359,3.844c-1.725,0.405-2.589,1.81-1.699,3.592c2.224,4.455,0.638,8.252-1.847,11.952
	c-0.295,0.44-0.415,0.996-0.623,1.496c-2.117,5.085,1.03,10.451,6.466,10.564c3.426,0.071,6.909-0.272,10.283-0.887
	c2.329-0.425,4.681-1.358,6.714-2.578c1.638-0.982,1.498-2.377-0.078-3.993c-1.717-1.761-3.286-1.225-5.168-0.931
	C294.675,28.641,290.863,29.032,286.775,29.541z M262.123,27.133c-1.335-1.057-0.951-5.821-0.881-6.661
	c0.079-0.945,0.212-1.885,0.342-2.824c0.199-1.428,0.313-2.952-0.27-4.305c-0.508-1.18-1.355-2.596-2.634-3.045
	c-1.119-0.393-2.382,0.347-2.899,1.38c-0.857,1.713-1.13,3.834-1.459,5.703c-0.604,3.424-0.711,6.786,0.006,10.208
	c0.213,1.015,0.496,2.018,0.843,2.995c0.375,1.057,0.836,2.074,1.421,3.032c0.732,1.2,2.401,2.316,3.791,2.542
	c1.753,0.285,4.384-0.475,6.007-1.115c1.728-0.681,3.228-1.781,4.613-3.003c2.702-2.384,5.201-5.155,6.476-8.576
	c0.645-1.729,1.12-3.558,1.375-5.385c0.254-1.818,0.404-4.01-0.298-5.753c-0.305-0.758-1.069-1.815-1.866-2.126
	c-1.458-0.568-2.888,0.427-3.576,1.678c-0.945,1.718-0.896,3.818-1.13,5.712c-0.242,1.96-0.786,3.85-2.059,5.4
	c-1.623,1.975-4.448,3.79-6.966,4.323C262.625,27.385,262.349,27.312,262.123,27.133z M314.96,28.686
	c0.773-2.553,1.221-4.292,1.824-5.976c1.527-4.266,3.082-8.522,4.708-12.751c0.88-2.29,0.079-3.651-2.095-4.418
	c-0.771-0.272-1.57-0.466-2.328-0.769c-1.397-0.558-2.077-0.245-2.535,1.33c-1.011,3.482-2.321,6.875-3.433,10.328
	c-1.138,3.534-2.423,7.045-3.219,10.659c-1.237,5.613,2.659,10.274,7.963,9.187c5.089-1.043,10.079-2.091,15.314-1.706
	c0.832,0.061,2.512-1.044,2.475-1.503c-0.103-1.282-0.548-3.049-1.487-3.661c-4.052-2.641-8.591-2.27-13.114-1.401
	C317.935,28.217,316.826,28.376,314.96,28.686z M346.729,4.818c-0.786-0.052-1.597,0.195-2.318,0.834
	c-2.479,2.197-2.191,6.46-2.825,9.414c-0.587,2.736-1.232,5.475-1.553,8.221c-0.077,0.661,0.782,1.628,1.622,1.984
	c2.571,1.09,4.904,0.429,5.593-1.823c0.893-2.919,1.653-5.919,2.369-8.887c0.512-2.12,1.2-4.591,0.558-6.759
	C349.681,6.139,348.252,4.918,346.729,4.818z M340.621,39.785c2.272,0.001,4.993-3.291,4.682-6.036
	c-0.36-3.176-3.427-2.628-5.185-2.612c-1.164,0.011-2.999,2.174-3.306,3.632C336.283,37.268,338.596,39.785,340.621,39.785z
	 M248.048,14.922c-4.479-5.536-10.775-8.148-17.127-10.872c-1.326-0.569-4.613-3.02-5.948-1.628
	c-0.984,1.026-0.698,3.111-0.624,4.39c0.12,2.066,0.375,4.131,0.417,6.201c0.077,3.839,0.117,7.702-0.518,11.501
	c-0.6,3.59-2.19,7.087-1.874,10.789c0.292,3.412,3.043,4.945,6.25,4.139c2.013-0.506,3.708-1.883,5.554-2.816
	c2.248-1.135,4.566-2.123,6.788-3.311c1.763-0.942,3.499-1.939,5.182-3.017C252.404,26.291,252.787,20.778,248.048,14.922z
	 M242.234,24.263c-3.517,1.955-7.109,3.775-11.082,5.859c-0.034-6.436-0.064-12.155-0.095-17.926
	c4.762,1.272,9.545,3.048,12.961,7.212c0.496,0.605,0.546,1.949,0.243,2.736C243.934,22.994,243.067,23.8,242.234,24.263z"/>
</svg>
